<svg width="73" height="16" viewBox="0 0 73 16" fill="none" xmlns="http://www.w3.org/2000/svg">
<path d="M5.21582 11.3252L7.73145 5.60352H9.31055V13H8.0459V7.62012L5.65332 13H4.77832L2.33789 7.50391V13H1.07324V5.60352H2.71387L5.21582 11.3252ZM14.417 13.1367C13.4144 13.1367 12.5986 12.8086 11.9697 12.1523C11.3408 11.4915 11.0264 10.6097 11.0264 9.50684V9.27441C11.0264 8.54069 11.1654 7.88672 11.4434 7.3125C11.7259 6.73372 12.1178 6.28255 12.6191 5.95898C13.125 5.63086 13.6719 5.4668 14.2598 5.4668C15.2214 5.4668 15.9688 5.78353 16.502 6.41699C17.0352 7.05046 17.3018 7.95736 17.3018 9.1377V9.66406H12.291C12.3092 10.3932 12.5212 10.9834 12.9268 11.4346C13.3369 11.8812 13.8564 12.1045 14.4854 12.1045C14.932 12.1045 15.3102 12.0133 15.6201 11.8311C15.93 11.6488 16.2012 11.4072 16.4336 11.1064L17.2061 11.708C16.5863 12.6605 15.6566 13.1367 14.417 13.1367ZM14.2598 6.50586C13.7493 6.50586 13.321 6.69271 12.9746 7.06641C12.6283 7.43555 12.4141 7.95508 12.332 8.625H16.0371V8.5293C16.0007 7.88672 15.8275 7.38997 15.5176 7.03906C15.2077 6.68359 14.7884 6.50586 14.2598 6.50586ZM24.8145 13H23.5498V9.8418H20.1523V13H18.8809V5.60352H20.1523V8.80957H23.5498V5.60352H24.8145V13ZM28.2324 8.74121H30.0098C30.1055 7.75684 30.4541 6.96615 31.0557 6.36914C31.6618 5.76758 32.4251 5.4668 33.3457 5.4668C34.3118 5.4668 35.1025 5.79264 35.7178 6.44434C36.333 7.09603 36.6657 7.94368 36.7158 8.9873L36.7227 9.38379C36.7227 10.1038 36.5814 10.7533 36.2988 11.332C36.0163 11.9108 35.6198 12.3574 35.1094 12.6719C34.599 12.9818 34.0156 13.1367 33.3594 13.1367C32.4069 13.1367 31.6276 12.8268 31.0215 12.207C30.4154 11.5827 30.0758 10.7738 30.0029 9.78027H28.2324V13H26.9678V5.60352H28.2324V8.74121ZM31.2539 9.38379C31.2539 10.2041 31.443 10.8626 31.8213 11.3594C32.2041 11.8561 32.7168 12.1045 33.3594 12.1045C34.002 12.1045 34.5101 11.8516 34.8838 11.3457C35.262 10.8398 35.4512 10.1357 35.4512 9.2334C35.4512 8.42676 35.2598 7.77051 34.877 7.26465C34.4941 6.75879 33.9837 6.50586 33.3457 6.50586C32.7168 6.50586 32.2109 6.75423 31.8281 7.25098C31.4453 7.74772 31.2539 8.45866 31.2539 9.38379Z" fill="white"/>
<line x1="50" y1="1" x2="72" y2="1" stroke="white" stroke-opacity="0.8" stroke-width="2" stroke-linecap="round" stroke-linejoin="round"/>
<line x1="50" y1="8" x2="72" y2="8" stroke="white" stroke-opacity="0.8" stroke-width="2" stroke-linecap="round" stroke-linejoin="round"/>
<line x1="50" y1="15" x2="72" y2="15" stroke="white" stroke-opacity="0.8" stroke-width="2" stroke-linecap="round" stroke-linejoin="round"/>
</svg>
